<svg xmlns="http://www.w3.org/2000/svg" data-name="Layer 1" viewBox="0 0 99.66667 124.5833375" x="0px" y="0px"><path d="M26.31006,31.91471V68.99089a6.04365,6.04365,0,0,0,6.03711,6.0371H69.42383a6.04365,6.04365,0,0,0,6.03711-6.0371V43.03971a1.5,1.5,0,0,0-3,0V68.99089a3.04037,3.04037,0,0,1-3.03711,3.0371H32.34717a3.04037,3.04037,0,0,1-3.03711-3.0371V31.91471a3.04037,3.04037,0,0,1,3.03711-3.03711H58.61133a1.5,1.5,0,1,0,0-3H32.34717A6.04366,6.04366,0,0,0,26.31006,31.91471Z"/><path d="M78.13184,25.57682,76.418,23.863a4.18657,4.18657,0,0,0-5.91309,0L41.22949,53.13835a1.49238,1.49238,0,0,0-.3623.58593l-2.75293,8.25879a1.49946,1.49946,0,0,0,1.897,1.89746L48.27,61.1276a1.48865,1.48865,0,0,0,.58643-.3623l1.71142-1.71094,27.564-27.56445A4.18658,4.18658,0,0,0,78.13184,25.57682Zm-2.1211,3.792L46.98584,58.39323l-5.07715,1.69238,1.69238-5.07617L72.626,25.98405a1.18593,1.18593,0,0,1,1.6709,0l1.71337,1.71387A1.18324,1.18324,0,0,1,76.01074,29.36882Z"/><text x="0" y="114.66667" fill="#000000" font-size="5px" font-weight="bold" font-family="'Helvetica Neue', Helvetica, Arial-Unicode, Arial, Sans-serif">Created by Dewanata Visuals</text><text x="0" y="119.66667" fill="#000000" font-size="5px" font-weight="bold" font-family="'Helvetica Neue', Helvetica, Arial-Unicode, Arial, Sans-serif">from the Noun Project</text></svg>